<svg width="25" height="25" viewBox="0 0 25 25" fill="none" xmlns="http://www.w3.org/2000/svg">
<path d="M20.0572 7.45737L14.287 3.44201C12.7142 2.346 10.3044 2.41212 8.79733 3.58595L3.79727 7.50866C2.79926 8.2912 2.01333 9.8932 2.01653 11.1532L2.03405 18.0532C2.04053 20.6032 4.1158 22.6779 6.6658 22.6714L17.4458 22.644C19.9958 22.6376 22.0605 20.5623 22.054 18.0123L22.0368 11.2324C22.0334 9.88235 21.1592 8.22457 20.0572 7.45737ZM12.7956 18.6558C12.7967 19.0658 12.4575 19.4067 12.0475 19.4077C11.6375 19.4088 11.2967 19.0697 11.2956 18.6597L11.288 15.6597C11.287 15.2497 11.6261 14.9088 12.0361 14.9078C12.4461 14.9067 12.787 15.2459 12.788 15.6559L12.7956 18.6558Z" fill="#65BC90"/>
</svg>
