<svg width="25" height="25" viewBox="0 0 25 25" fill="none" xmlns="http://www.w3.org/2000/svg">
<path d="M12.1883 11.6678C12.1583 11.6679 12.1383 11.6679 12.1083 11.668C12.0582 11.6581 11.9882 11.6583 11.9283 11.6684C9.02805 11.5858 6.83227 9.31138 6.82513 6.50138C6.81787 3.64139 9.14194 1.30548 12.0019 1.29822C14.8619 1.29096 17.1978 3.61503 17.2051 6.47502C17.2022 9.28504 15.008 11.5706 12.2183 11.6677C12.2083 11.6677 12.1983 11.6678 12.1883 11.6678ZM12.0057 2.79821C9.97575 2.80337 8.31997 4.46758 8.32513 6.49757C8.33021 8.49757 9.89429 10.1036 11.8845 10.1685C11.9344 10.1584 12.0744 10.1581 12.2045 10.1677C14.1642 10.0728 15.7001 8.45885 15.7051 6.47883C15.6999 4.44884 14.0357 2.79306 12.0057 2.79821Z" fill="#65BC90"/>
<path d="M12.226 22.5977C10.266 22.6027 8.29477 22.1077 6.80224 21.1115C5.40991 20.195 4.64671 18.9369 4.64323 17.5669C4.63975 16.1969 5.39652 14.925 6.78416 13.9915C9.77909 11.9939 14.6391 11.9815 17.6241 13.964C19.0065 14.8804 19.7796 16.1385 19.7831 17.5085C19.7866 18.8785 19.0298 20.1504 17.6422 21.0839C16.1447 22.0877 14.186 22.5927 12.226 22.5977ZM7.61735 15.2494C6.65898 15.8918 6.14107 16.7131 6.14325 17.5731C6.14541 18.4231 6.67749 19.2418 7.62909 19.8694C10.1233 21.533 14.3233 21.5224 16.8091 19.846C17.7674 19.2036 18.2853 18.3823 18.2832 17.5223C18.281 16.6723 17.7489 15.8536 16.7973 15.2261C14.3031 13.5724 10.1031 13.5831 7.61735 15.2494Z" fill="#65BC90"/>
</svg>
