<svg width="25" height="25" viewBox="0 0 25 25" fill="none" xmlns="http://www.w3.org/2000/svg">
<path d="M15.5573 23.0814L9.55729 23.0966C4.12731 23.1104 1.80142 20.7963 1.78763 15.3663L1.77239 9.36637C1.7586 3.93639 4.0727 1.6105 9.50268 1.59671L15.5027 1.58147C20.9326 1.56768 23.2585 3.88178 23.2723 9.31176L23.2876 15.3117C23.3014 20.7417 20.9873 23.0676 15.5573 23.0814ZM9.50649 3.0967C4.89651 3.10841 3.26068 4.75257 3.27239 9.36256L3.28763 15.3625C3.29934 19.9725 4.9435 21.6084 9.55348 21.5966L15.5535 21.5814C20.1634 21.5697 21.7993 19.9255 21.7876 15.3156L21.7723 9.31557C21.7606 4.70559 20.1165 3.06976 15.5065 3.08147L9.50649 3.0967Z" fill="#BDBDBD"/>
<path d="M11.3011 16.7122C10.8811 16.7133 10.4908 16.6143 10.1403 16.4151C9.33916 15.9572 8.87677 15.0184 8.87375 13.8284L8.86623 10.8684C8.86323 9.68837 9.32082 8.73721 10.1196 8.27518C10.9185 7.81314 11.9587 7.8805 12.9902 8.47789L15.5639 9.95135C16.5854 10.5388 17.1776 11.4073 17.18 12.3273C17.1823 13.2473 16.5945 14.1187 15.576 14.7113L13.0098 16.1979C12.4306 16.5393 11.8411 16.7108 11.3011 16.7122ZM11.2927 9.4722C11.1327 9.47261 10.9928 9.50296 10.8829 9.57324C10.5634 9.76405 10.3746 10.2345 10.3762 10.8645L10.3837 13.8245C10.3853 14.4545 10.5665 14.9241 10.897 15.1132C11.2175 15.3024 11.7173 15.2211 12.2665 14.8997L14.8327 13.4132C15.3819 13.0918 15.6909 12.701 15.69 12.331C15.689 11.961 15.378 11.5618 14.8272 11.2532L12.2535 9.77976C11.8929 9.57068 11.5627 9.47151 11.2927 9.4722Z" fill="#BDBDBD"/>
</svg>
